<svg width="3000" height="1430" viewBox="0 0 3000 1430" fill="none" xmlns="http://www.w3.org/2000/svg">
<path d="M2681.25 117.704C2681.25 128.75 2690.2 137.704 2701.25 137.704H2820.63C2831.67 137.704 2840.62 146.658 2840.62 157.704V248.787C2840.62 259.833 2849.58 268.787 2860.63 268.787H2980C2991.05 268.787 3000 277.741 3000 288.787V1244.49C3000 1255.54 2991.05 1264.49 2980 1264.49H2810.63C2799.58 1264.49 2790.62 1273.45 2790.62 1284.49V1410C2790.62 1421.05 2781.67 1430 2770.63 1430H20C8.95431 1430 0 1421.05 0 1410V120.63C0 109.584 8.95431 100.63 20 100.63H81.5625C92.6082 100.63 101.562 91.6756 101.562 80.6299V20C101.562 8.9543 110.517 0 121.563 0H2661.25C2672.3 0 2681.25 8.9543 2681.25 20V117.704Z" fill="white"/>
</svg>
